<svg data-v-423bf9ae="" xmlns="http://www.w3.org/2000/svg" viewBox="0 0 297.8404898026887 60" class="font"><!----><!----><!----><g data-v-423bf9ae="" id="08cdd63e-1761-4ed7-a433-7742f726f857" fill="white" transform="matrix(5.8365760270947415,0,0,5.8365760270947415,-9.980544959730793,-19.435797248092918)"><path d="M9.32 13.55L8.51 13.55L6.17 10.28Q5.66 10.35 5.22 10.35L5.22 10.35L2.42 10.35L2.42 13.55L1.71 13.55L1.71 3.75L5.22 3.75Q7.07 3.75 8.12 4.63Q9.17 5.50 9.17 7.06L9.17 7.06Q9.17 8.22 8.58 9.01Q7.98 9.80 6.87 10.12L6.87 10.12L9.32 13.55ZM2.42 9.72L5.22 9.72Q6.79 9.72 7.62 9.02Q8.44 8.33 8.44 7.06L8.44 7.06Q8.44 5.78 7.62 5.09Q6.79 4.40 5.22 4.40L5.22 4.40L2.42 4.40L2.42 9.72ZM12.50 12.91L18.55 12.91L18.55 13.55L11.79 13.55L11.79 3.75L18.34 3.75L18.34 4.40L12.50 4.40L12.50 8.26L17.72 8.26L17.72 8.89L12.50 8.89L12.50 12.91ZM24.50 6.19Q25.87 6.19 26.67 6.99Q27.47 7.78 27.47 9.28L27.47 9.28L27.47 13.55L26.77 13.55L26.77 9.34Q26.77 8.11 26.14 7.46Q25.52 6.82 24.40 6.82L24.40 6.82Q23.11 6.82 22.37 7.59Q21.63 8.36 21.63 9.66L21.63 9.66L21.63 13.55L20.93 13.55L20.93 6.24L21.60 6.24L21.60 7.83Q21.98 7.06 22.73 6.62Q23.48 6.19 24.50 6.19L24.50 6.19ZM30.35 13.55L30.35 6.24L31.05 6.24L31.05 13.55L30.35 13.55ZM30.70 4.47Q30.46 4.47 30.30 4.30Q30.13 4.14 30.13 3.91L30.13 3.91Q30.13 3.67 30.30 3.50Q30.46 3.33 30.70 3.33L30.70 3.33Q30.94 3.33 31.11 3.49Q31.28 3.65 31.28 3.89L31.28 3.89Q31.28 4.13 31.11 4.30Q30.94 4.47 30.70 4.47L30.70 4.47ZM34.03 12.95L38.95 12.95L38.95 13.55L33.14 13.55L33.14 13.08L37.95 6.85L33.21 6.85L33.21 6.24L38.86 6.24L38.86 6.72L34.03 12.95ZM47.11 9.87L47.10 10.07L40.81 10.07Q40.84 10.92 41.24 11.58Q41.65 12.25 42.34 12.61Q43.04 12.98 43.90 12.98L43.90 12.98Q44.62 12.98 45.23 12.72Q45.84 12.46 46.24 11.96L46.24 11.96L46.65 12.42Q46.17 12.99 45.45 13.30Q44.73 13.61 43.89 13.61L43.89 13.61Q42.80 13.61 41.94 13.13Q41.09 12.66 40.61 11.82Q40.12 10.98 40.12 9.90L40.12 9.90Q40.12 8.83 40.58 7.99Q41.03 7.14 41.83 6.66Q42.63 6.19 43.62 6.19L43.62 6.19Q44.62 6.19 45.41 6.66Q46.20 7.13 46.66 7.97Q47.11 8.81 47.11 9.87L47.11 9.87ZM43.62 6.80Q42.85 6.80 42.24 7.15Q41.62 7.49 41.25 8.11Q40.88 8.74 40.82 9.52L40.82 9.52L46.42 9.52Q46.38 8.74 46.00 8.12Q45.63 7.50 45.01 7.15Q44.39 6.80 43.62 6.80L43.62 6.80ZM49.95 7.84Q50.29 7.04 51.00 6.61Q51.72 6.19 52.74 6.19L52.74 6.19L52.74 6.87L52.57 6.86Q51.35 6.86 50.67 7.62Q49.98 8.39 49.98 9.74L49.98 9.74L49.98 13.55L49.28 13.55L49.28 6.24L49.95 6.24L49.95 7.84Z"></path></g><!----><!----></svg>